<?xml version="1.0" standalone="no"?>
<!DOCTYPE svg PUBLIC "-//W3C//DTD SVG 20010904//EN"
 "http://www.w3.org/TR/2001/REC-SVG-20010904/DTD/svg10.dtd">
<svg version="1.0" xmlns="http://www.w3.org/2000/svg"
 width="260.000000pt" height="260.000000pt" viewBox="0 0 260.000000 260.000000"
 preserveAspectRatio="xMidYMid meet">
<metadata>
Created by potrace 1.14, written by Peter Selinger 2001-2017
</metadata>
<g transform="translate(0.000000,260.000000) scale(0.100000,-0.100000)"
fill="#000000" stroke="none">
<path d="M716 2483 c-2 -2 -13 -6 -26 -8 -58 -11 -158 -94 -180 -149 -37 -94
-40 -136 -17 -217 17 -56 34 -85 77 -125 98 -93 169 -129 251 -126 31 1 68 6
83 11 14 6 26 8 26 5 0 -6 55 34 97 70 12 10 20 23 17 28 -3 4 -1 8 5 8 10 0
34 45 47 90 9 33 13 100 5 100 -3 0 -7 11 -8 25 -4 44 -6 55 -12 55 -3 0 -12
14 -20 32 -37 83 -141 178 -213 194 -28 7 -127 12 -132 7z"/>
<path d="M8 2458 c-2 -7 -3 -321 -2 -698 1 -635 2 -689 19 -745 10 -33 19 -62
20 -65 5 -23 67 -133 80 -142 7 -5 7 -8 0 -8 -7 0 -7 -3 0 -8 6 -4 28 -29 50
-57 22 -27 52 -62 66 -77 38 -40 148 -126 170 -133 10 -4 19 -10 19 -15 0 -8
126 -64 174 -78 11 -3 302 -6 646 -7 344 -1 643 -5 665 -9 53 -9 121 -44 158
-81 38 -38 76 -119 81 -175 5 -54 22 -72 42 -46 10 15 14 16 16 5 3 -31 4 -34
12 -48 6 -10 29 28 78 127 38 78 68 144 68 148 -1 4 2 10 7 13 15 11 43 82 43
109 0 16 -13 49 -30 75 -16 26 -30 53 -30 60 0 11 34 56 101 135 10 12 20 28
22 35 1 6 4 14 7 17 20 20 70 148 86 221 11 48 6 255 -7 299 -7 25 -13 47 -14
50 -7 30 -34 94 -57 135 -16 27 -34 60 -40 73 -6 12 -15 22 -20 22 -4 0 -8 4
-8 10 0 13 -22 40 -98 119 -34 36 -62 61 -62 56 0 -6 -3 -5 -8 1 -4 6 -27 24
-52 40 -279 186 -664 146 -907 -95 -69 -68 -113 -131 -157 -226 -32 -67 -36
-81 -54 -185 -9 -50 -8 -197 2 -249 9 -48 46 -154 57 -165 5 -6 9 -14 9 -18 0
-14 -495 -10 -527 4 -38 16 -114 68 -133 89 -43 50 -50 61 -52 89 -1 16 -5 30
-8 30 -3 0 -6 237 -6 528 -1 504 -3 581 -14 592 -3 3 -14 22 -24 42 -28 56
-125 152 -176 175 -92 42 -203 58 -212 31z m1932 -980 c0 -5 3 -7 8 -4 13 8
67 -20 100 -53 87 -87 108 -244 50 -368 -22 -47 -103 -133 -125 -133 -7 0 -13
-4 -13 -9 0 -5 -12 -12 -27 -16 -16 -5 -37 -11 -48 -14 -11 -3 -54 -6 -95 -6
-62 0 -85 5 -133 29 -52 26 -134 102 -122 114 2 2 -2 16 -9 31 -7 14 -13 57
-13 95 0 60 6 88 33 169 4 9 10 17 15 17 5 0 9 6 9 14 0 21 88 96 140 119 69
31 230 42 230 15z"/>
<path d="M579 1759 c-1 -8 -3 -138 -4 -289 -1 -213 2 -281 12 -303 14 -28 141
-134 155 -129 4 1 8 -3 8 -10 0 -6 3 -9 6 -5 3 3 26 -3 51 -14 24 -10 67 -20
94 -22 27 -2 51 -6 54 -9 10 -10 45 4 54 21 4 9 7 141 6 293 -1 273 -1 278
-23 298 -12 12 -22 25 -22 31 0 16 -57 67 -98 88 -91 46 -290 80 -293 50z"/>
</g>
</svg>
